# xmcd
#
# Track frame offsets:
#	150
#	23020
#	43127
#	64800
#	76740
#	96615
#	112845
#	135567
#	154147
#	169357
#	187520
#	205525
#
# Disc length: 2990 seconds
#
# Revision: 1
# Processed by: cddbd v1.4PL0 Copyright (c) Steve Scherf et al.
# Submitted via: EasyCDDAExtractor 5.0.7
#
DISCID=920bac0c
DTITLE=Little Milton - Feel It
DYEAR=2000
DGENRE=Blues
TTITLE0=A Juke Joint In My House
TTITLE1=Born Yesterday
TTITLE2=If You Give Me Your Heart (with Dorothy Moore)
TTITLE3=I Gotta Get Away From You
TTITLE4=Shot From The Saddle
TTITLE5=Baby Let Me Rock You
TTITLE6=The Love Of A Woman
TTITLE7=She Know How To Wear A Hat
TTITLE8=Lovable Girl
TTITLE9=You're Givin' Me The Blues
TTITLE10=He's Got You
TTITLE11=Lady
EXTD=
EXTT0=
EXTT1=
EXTT2=
EXTT3=
EXTT4=
EXTT5=
EXTT6=
EXTT7=
EXTT8=
EXTT9=
EXTT10=
EXTT11=
PLAYORDER=
